<svg width="150" height="24" viewBox="0 0 150 24" fill="none" xmlns="http://www.w3.org/2000/svg">
<g clip-path="url(#clip0_302_119)">
<mask id="mask0_302_119" style="mask-type:luminance" maskUnits="userSpaceOnUse" x="0" y="0" width="151" height="24">
<path d="M0 0H150V24H0V0Z" fill="white"/>
</mask>
<g mask="url(#mask0_302_119)">
<path d="M19.3476 12.8895C25.0016 12.6859 28.4351 10.2442 28.4351 7.36993C28.4351 4.30614 24.6936 1.82325 18.3204 1.82325H17.4046L19.2812 0L16.4932 0.0108581L11.897 1.82325H4.57472C2.00228 1.82325 0.572401 2.46569 0 3.7189H15.0508C19.2008 3.7189 21.9901 4.35952 21.9901 7.27628C21.9901 10.4197 18.6365 11.0314 15.0508 11.0314H8.29196L14.275 17.5892C19.3463 23.0318 24.1023 24 30.0068 24L19.3476 12.8895Z" fill="#E3132C"/>
</g>
<mask id="mask1_302_119" style="mask-type:luminance" maskUnits="userSpaceOnUse" x="0" y="0" width="151" height="24">
<path d="M0 0H150V24H0V0Z" fill="white"/>
</mask>
<g mask="url(#mask1_302_119)">
<path d="M47.2898 14.3619C46.1567 14.3619 45.2399 14.223 44.5423 14.0561V7.73443C45.266 7.64576 46.2007 7.5693 47.2898 7.5693C49.9071 7.5693 51.4335 8.64606 51.4335 10.8887C51.4335 13.1734 49.7985 14.361 47.2898 14.361M47.6826 6.20615C45.4801 6.20615 43.3427 6.47444 41.0518 6.56266V19.2621H44.5423V15.5581C45.5398 15.6531 46.6379 15.7237 47.6831 15.7237C52.3732 15.7237 55.3393 14.3176 55.3393 10.8883C55.3393 7.45891 52.3723 6.20706 47.6822 6.20706M67.2911 18.2306C64.5211 18.2306 62.6014 16.1648 62.6014 12.8889C62.6014 9.63595 64.5211 7.50324 67.2911 7.50324C70.0835 7.50324 71.9803 9.6355 71.9803 12.8884C71.9803 16.1413 70.083 18.2297 67.2911 18.2297M67.2911 6.1401C62.1215 6.1401 58.6974 8.88765 58.6974 12.888C58.6974 16.8883 62.1215 19.5919 67.2911 19.5919C72.4606 19.5919 75.8852 16.8878 75.8852 12.887C75.8852 8.88765 72.4611 6.13965 67.2915 6.13965" fill="#E3132C"/>
</g>
<path d="M126.771 6.5498L119.028 16.6026V6.5498H115.538V19.3207H119.028L126.771 9.24623V19.3207H130.261V6.5498H128.843" fill="#E3132C"/>
<mask id="mask2_302_119" style="mask-type:luminance" maskUnits="userSpaceOnUse" x="0" y="0" width="151" height="24">
<path d="M0 0H150V24H0V0Z" fill="white"/>
</mask>
<g mask="url(#mask2_302_119)">
<path d="M88.6885 7.54811C91.3925 7.54811 93.0073 9.02073 93.0073 9.02073L93.7265 7.12962C93.7265 7.12962 91.6982 6.14062 88.2521 6.14062C83.2792 6.14062 79.7896 8.88863 79.7896 12.8889C79.7896 16.8892 83.0605 19.5924 88.4698 19.5924C91.7857 19.5924 93.7045 18.5374 93.7045 18.5374V16.5047C93.7045 16.5047 92.0906 18.0646 88.8407 18.0646C85.5248 18.0646 83.6931 16.1192 83.6931 12.8889C83.6931 9.67991 85.5683 7.54765 88.6876 7.54765M143.26 13.5047C140.992 13.5047 139.618 12.4053 139.618 10.4282C139.618 8.49366 140.992 7.57027 143.26 7.57027C144.491 7.57027 145.638 7.6775 146.51 7.79106V13.5051L143.26 13.5047ZM142.867 6.20713C138.636 6.20713 135.713 7.28389 135.713 10.4495C135.713 12.5415 136.9 13.7748 138.986 14.3729L134.34 19.5078H134.775C137.96 19.5078 139.53 18.826 141.581 16.3205L142.799 14.8217C142.822 14.8217 142.844 14.823 142.867 14.823H146.51V19.2626H150V6.55323C147.056 6.46546 145.071 6.20713 142.868 6.20713M105.679 7.54811C108.383 7.54811 109.997 9.02073 109.997 9.02073L110.717 7.12962C110.717 7.12962 108.688 6.14062 105.242 6.14062C100.269 6.14062 96.7798 8.88863 96.7798 12.8889C96.7798 16.8892 100.051 19.5924 105.46 19.5924C108.775 19.5924 110.695 18.5374 110.695 18.5374V16.5047C110.695 16.5047 109.08 18.0646 105.831 18.0646C102.515 18.0646 100.683 16.1192 100.683 12.8889C100.684 9.67991 102.559 7.54765 105.679 7.54765" fill="#E3132C"/>
</g>
</g>
<defs>
<clipPath id="clip0_302_119">
<rect width="150" height="24" fill="white"/>
</clipPath>
</defs>
</svg>
