<svg width="201" height="48" viewBox="0 0 201 48" fill="none" xmlns="http://www.w3.org/2000/svg">
<path fill-rule="evenodd" clip-rule="evenodd" d="M33.3298 22.2095C43.0698 21.8587 48.9847 17.6515 48.9847 12.699C48.9847 7.41981 42.5393 3.14161 31.5603 3.14161H29.9826L33.2154 0L28.4126 0.0187093L20.4947 3.14161H7.8808C3.4493 3.14161 0.986066 4.24858 0 6.40794H25.9277C33.0769 6.40794 37.882 7.5118 37.882 12.5376C37.882 17.9539 32.1048 19.0079 25.9277 19.0079H14.2844L24.5913 30.3075C33.3275 39.6856 41.5207 41.3538 51.6923 41.3538L33.3298 22.2095ZM63.0879 12.085C62.9651 12.8191 62.7265 13.4486 62.3719 13.9736C62.0197 14.4986 61.5879 14.902 61.0765 15.1838C60.5674 15.4634 60.0174 15.6031 59.4265 15.6031C58.8106 15.6031 58.2844 15.4566 57.8481 15.1634C57.414 14.8679 57.1026 14.4486 56.914 13.9054C56.7253 13.36 56.6935 12.71 56.8185 11.9554C56.9413 11.2213 57.1788 10.5918 57.531 10.0668C57.8856 9.53951 58.3185 9.13496 58.8299 8.85315C59.3435 8.57133 59.8981 8.43042 60.4935 8.43042C61.1049 8.43042 61.6265 8.57815 62.0583 8.8736C62.4924 9.16678 62.8038 9.58724 62.9924 10.135C63.181 10.6804 63.2128 11.3304 63.0879 12.085ZM62.0617 11.9554C62.1549 11.3986 62.1435 10.9304 62.0276 10.5509C61.914 10.1691 61.7197 9.88042 61.4447 9.68497C61.1697 9.48951 60.8379 9.39178 60.4492 9.39178C60.0356 9.39178 59.6481 9.49633 59.2867 9.70542C58.9276 9.91451 58.6208 10.2191 58.3663 10.6191C58.1117 11.0191 57.9379 11.5077 57.8447 12.085C57.7492 12.6418 57.7594 13.11 57.8754 13.4895C57.9913 13.8691 58.1867 14.1566 58.4617 14.352C58.739 14.5452 59.0719 14.6418 59.4606 14.6418C59.8719 14.6418 60.2572 14.5384 60.6163 14.3316C60.9776 14.1225 61.2856 13.8191 61.5401 13.4213C61.7947 13.0213 61.9685 12.5327 62.0617 11.9554ZM65.9421 15.6134C65.433 15.6134 65.016 15.4986 64.691 15.2691C64.366 15.0372 64.1398 14.7179 64.0126 14.3111C63.8853 13.9043 63.8648 13.4384 63.9512 12.9134C64.0376 12.3816 64.2137 11.9122 64.4796 11.5054C64.7478 11.0963 65.083 10.777 65.4853 10.5475C65.8898 10.3179 66.3387 10.2031 66.8319 10.2031C67.2296 10.2031 67.5717 10.277 67.858 10.4247C68.1444 10.5702 68.3614 10.7747 68.5092 11.0384C68.6569 11.302 68.7205 11.61 68.7001 11.9622H67.708C67.6921 11.7168 67.6012 11.5054 67.4353 11.3281C67.2694 11.1509 67.0251 11.0622 66.7023 11.0622C66.4183 11.0622 66.1569 11.1372 65.9182 11.2872C65.6796 11.435 65.4785 11.6463 65.3148 11.9213C65.1512 12.1941 65.0398 12.5168 64.9807 12.8895C64.9171 13.2713 64.9205 13.6009 64.991 13.8781C65.0614 14.1554 65.191 14.3702 65.3796 14.5225C65.5683 14.6747 65.8057 14.7509 66.0921 14.7509C66.2876 14.7509 66.4694 14.7156 66.6376 14.6452C66.808 14.5725 66.958 14.4691 67.0876 14.335C67.2194 14.2009 67.3217 14.0395 67.3944 13.8509H68.3898C68.2921 14.1895 68.1285 14.4918 67.8989 14.7577C67.6717 15.0236 67.3921 15.2327 67.0603 15.385C66.7285 15.5372 66.3558 15.6134 65.9421 15.6134ZM69.5302 11.1509L69.6734 10.2713H74.0915L73.9484 11.1509H72.2404L71.5245 15.5077H70.5256L71.2415 11.1509H69.5302ZM75.5634 15.6236C75.2316 15.6236 74.9418 15.5622 74.6941 15.4395C74.4464 15.3145 74.2634 15.1338 74.1452 14.8975C74.0271 14.6611 73.9964 14.3713 74.0532 14.0281C74.1032 13.7327 74.2009 13.4895 74.3464 13.2986C74.4941 13.1077 74.6736 12.9566 74.885 12.8452C75.0964 12.7316 75.3259 12.6463 75.5736 12.5895C75.8214 12.5327 76.0714 12.4906 76.3236 12.4634C76.6418 12.427 76.8998 12.3963 77.0975 12.3713C77.2975 12.3463 77.4475 12.3077 77.5475 12.2554C77.6475 12.2009 77.7077 12.1122 77.7282 11.9895V11.9656C77.7759 11.6702 77.7327 11.4406 77.5986 11.277C77.4668 11.1111 77.2373 11.0281 76.91 11.0281C76.5691 11.0281 76.2827 11.1031 76.0509 11.2531C75.8214 11.4031 75.6521 11.5713 75.543 11.7577L74.6293 11.5395C74.793 11.2213 75.0009 10.9645 75.2532 10.7691C75.5077 10.5713 75.7861 10.4281 76.0884 10.3395C76.3907 10.2486 76.6998 10.2031 77.0157 10.2031C77.2248 10.2031 77.4418 10.2281 77.6668 10.2781C77.8918 10.3259 78.0964 10.4145 78.2805 10.5441C78.4668 10.6736 78.6055 10.8588 78.6964 11.0997C78.7873 11.3384 78.8009 11.6486 78.7373 12.0304L78.1611 15.5077H77.1657L77.2884 14.7918H77.2475C77.1611 14.9236 77.0407 15.0531 76.8861 15.1804C76.7339 15.3077 76.5475 15.4134 76.3271 15.4975C76.1066 15.5816 75.8521 15.6236 75.5634 15.6236ZM75.9111 14.8054C76.1952 14.8054 76.4464 14.7497 76.6646 14.6384C76.885 14.527 77.0634 14.3816 77.1998 14.202C77.3361 14.0202 77.4214 13.8259 77.4555 13.6191L77.568 12.9441C77.5248 12.9804 77.4486 13.0134 77.3396 13.0429C77.2327 13.0725 77.1123 13.0986 76.9782 13.1213C76.8441 13.1441 76.7123 13.1634 76.5827 13.1793C76.4555 13.1952 76.3498 13.21 76.2657 13.2236C76.0657 13.2486 75.8782 13.2906 75.7032 13.3497C75.5305 13.4088 75.3861 13.4941 75.2702 13.6054C75.1543 13.7145 75.0816 13.86 75.0521 14.0418C75.0111 14.2941 75.0714 14.485 75.2327 14.6145C75.3964 14.7418 75.6225 14.8054 75.9111 14.8054ZM80.395 10.2713H82.5631C83.1518 10.2713 83.5984 10.3975 83.9029 10.6497C84.2097 10.902 84.3268 11.2418 84.254 11.6691C84.204 11.9781 84.0654 12.2225 83.8381 12.402C83.6109 12.5793 83.3336 12.6986 83.0063 12.76C83.2336 12.7872 83.4359 12.8577 83.6131 12.9713C83.7904 13.0827 83.9222 13.2338 84.0086 13.4247C84.095 13.6134 84.1177 13.8372 84.0768 14.0963C84.029 14.3736 83.9154 14.6191 83.7359 14.8327C83.5563 15.0441 83.3211 15.21 83.0302 15.3304C82.7415 15.4486 82.4063 15.5077 82.0245 15.5077H79.5222L80.395 10.2713ZM80.6234 14.6554H82.1677C82.4222 14.6554 82.6313 14.5952 82.795 14.4747C82.9586 14.352 83.0552 14.1884 83.0847 13.9838C83.1279 13.7384 83.0881 13.5463 82.9654 13.4077C82.845 13.2691 82.6609 13.1997 82.4131 13.1997H80.8688L80.6234 14.6554ZM80.9881 12.4531H82.2086C82.3995 12.4531 82.5688 12.4259 82.7165 12.3713C82.8643 12.3168 82.9836 12.2395 83.0745 12.1395C83.1654 12.0372 83.2222 11.9168 83.245 11.7781C83.2813 11.5781 83.2245 11.4213 83.0745 11.3077C82.9268 11.1918 82.7086 11.1338 82.42 11.1338H81.2097L80.9881 12.4531ZM86.1018 14.6281L86.3813 12.9509H87.6768C87.9654 12.9509 88.1904 13.0304 88.3518 13.1895C88.5154 13.3486 88.5756 13.5554 88.5325 13.81C88.4961 14.0509 88.3699 14.2475 88.154 14.3997C87.9404 14.552 87.6859 14.6281 87.3904 14.6281H86.1018ZM86.5279 12.0713H87.8234C88.462 12.0713 88.9268 12.2304 89.2177 12.5486C89.5109 12.8668 89.6177 13.277 89.5381 13.7793C89.4813 14.1066 89.3529 14.4009 89.1529 14.6622C88.9529 14.9236 88.6915 15.1304 88.3688 15.2827C88.0484 15.4327 87.6745 15.5077 87.2472 15.5077H84.9597L85.8325 10.2713H86.8279L86.5279 12.0713ZM95.1171 15.6134C94.608 15.6134 94.191 15.4986 93.866 15.2691C93.541 15.0372 93.3148 14.7179 93.1876 14.3111C93.0603 13.9043 93.0398 13.4384 93.1262 12.9134C93.2126 12.3816 93.3887 11.9122 93.6546 11.5054C93.9228 11.0963 94.258 10.777 94.6603 10.5475C95.0648 10.3179 95.5137 10.2031 96.0069 10.2031C96.4046 10.2031 96.7467 10.277 97.033 10.4247C97.3194 10.5702 97.5364 10.7747 97.6842 11.0384C97.8319 11.302 97.8955 11.61 97.8751 11.9622H96.883C96.8671 11.7168 96.7762 11.5054 96.6103 11.3281C96.4444 11.1509 96.2001 11.0622 95.8773 11.0622C95.5932 11.0622 95.3319 11.1372 95.0933 11.2872C94.8546 11.435 94.6535 11.6463 94.4898 11.9213C94.3262 12.1941 94.2148 12.5168 94.1557 12.8895C94.0921 13.2713 94.0955 13.6009 94.166 13.8781C94.2364 14.1554 94.366 14.3702 94.5546 14.5225C94.7432 14.6747 94.9808 14.7509 95.2671 14.7509C95.4626 14.7509 95.6444 14.7156 95.8126 14.6452C95.983 14.5725 96.133 14.4691 96.2626 14.335C96.3944 14.2009 96.4967 14.0395 96.5694 13.8509H97.5648C97.4671 14.1895 97.3035 14.4918 97.0739 14.7577C96.8467 15.0236 96.5671 15.2327 96.2353 15.385C95.9035 15.5372 95.5307 15.6134 95.1171 15.6134ZM99.2481 10.2713H101.416C102.005 10.2713 102.451 10.3975 102.756 10.6497C103.063 10.902 103.18 11.2418 103.107 11.6691C103.057 11.9781 102.919 12.2225 102.691 12.402C102.464 12.5793 102.187 12.6986 101.859 12.76C102.087 12.7872 102.289 12.8577 102.466 12.9713C102.644 13.0827 102.775 13.2338 102.862 13.4247C102.948 13.6134 102.971 13.8372 102.93 14.0963C102.882 14.3736 102.769 14.6191 102.589 14.8327C102.409 15.0441 102.174 15.21 101.883 15.3304C101.595 15.4486 101.259 15.5077 100.878 15.5077H98.3754L99.2481 10.2713ZM99.4765 14.6554H101.021C101.275 14.6554 101.484 14.5952 101.648 14.4747C101.812 14.352 101.908 14.1884 101.938 13.9838C101.981 13.7384 101.941 13.5463 101.819 13.4077C101.698 13.2691 101.514 13.1997 101.266 13.1997H99.7219L99.4765 14.6554ZM99.8413 12.4531H101.062C101.253 12.4531 101.422 12.4259 101.57 12.3713C101.717 12.3168 101.837 12.2395 101.928 12.1395C102.019 12.0372 102.075 11.9168 102.098 11.7781C102.134 11.5781 102.078 11.4213 101.928 11.3077C101.78 11.1918 101.562 11.1338 101.273 11.1338H100.063L99.8413 12.4531ZM106.039 15.6134C105.541 15.6134 105.125 15.4997 104.791 15.2725C104.457 15.0429 104.222 14.7225 104.086 14.3111C103.951 13.8975 103.929 13.4168 104.017 12.8691C104.104 12.3327 104.278 11.8645 104.539 11.4645C104.803 11.0645 105.132 10.7543 105.528 10.5338C105.925 10.3134 106.367 10.2031 106.854 10.2031C107.351 10.2031 107.766 10.3179 108.098 10.5475C108.432 10.777 108.667 11.0986 108.804 11.5122C108.94 11.9259 108.964 12.4077 108.875 12.9577C108.789 13.4895 108.613 13.9554 108.347 14.3554C108.083 14.7531 107.754 15.0622 107.358 15.2827C106.963 15.5031 106.523 15.6134 106.039 15.6134ZM106.097 14.7577C106.424 14.7577 106.709 14.6713 106.953 14.4986C107.198 14.3259 107.398 14.0963 107.553 13.81C107.707 13.5236 107.813 13.21 107.87 12.8691C107.922 12.5395 107.921 12.2384 107.866 11.9656C107.814 11.6906 107.7 11.4702 107.525 11.3043C107.35 11.1384 107.107 11.0554 106.796 11.0554C106.469 11.0554 106.181 11.1429 105.933 11.3179C105.688 11.4906 105.488 11.7213 105.333 12.01C105.181 12.2986 105.078 12.6134 105.023 12.9543C104.971 13.2816 104.971 13.5827 105.023 13.8577C105.075 14.1304 105.189 14.3486 105.364 14.5122C105.539 14.6759 105.783 14.7577 106.097 14.7577ZM110.838 14.0793L113.777 10.2713H114.875L114.002 15.5077H113.003L113.634 11.6963L110.702 15.5077H109.597L110.47 10.2713H111.465L110.838 14.0793ZM113.627 8.4986H114.462C114.398 8.88269 114.211 9.19519 113.9 9.4361C113.588 9.67474 113.201 9.79405 112.737 9.79405C112.278 9.79405 111.934 9.67474 111.704 9.4361C111.475 9.19519 111.393 8.88269 111.459 8.4986H112.29C112.263 8.66906 112.288 8.82019 112.365 8.95201C112.445 9.08156 112.606 9.14633 112.85 9.14633C113.088 9.14633 113.27 9.08156 113.395 8.95201C113.52 8.82246 113.597 8.67133 113.627 8.4986ZM122.133 10.2713L121.99 11.1509H119.645L118.919 15.5077H117.913L118.786 10.2713H122.133ZM124.32 15.6134C123.823 15.6134 123.407 15.4997 123.073 15.2725C122.738 15.0429 122.503 14.7225 122.367 14.3111C122.233 13.8975 122.21 13.4168 122.299 12.8691C122.385 12.3327 122.559 11.8645 122.82 11.4645C123.084 11.0645 123.413 10.7543 123.809 10.5338C124.207 10.3134 124.649 10.2031 125.135 10.2031C125.633 10.2031 126.048 10.3179 126.379 10.5475C126.713 10.777 126.949 11.0986 127.085 11.5122C127.221 11.9259 127.245 12.4077 127.157 12.9577C127.07 13.4895 126.894 13.9554 126.628 14.3554C126.365 14.7531 126.035 15.0622 125.64 15.2827C125.244 15.5031 124.804 15.6134 124.32 15.6134ZM124.378 14.7577C124.705 14.7577 124.991 14.6713 125.234 14.4986C125.479 14.3259 125.679 14.0963 125.834 13.81C125.988 13.5236 126.094 13.21 126.151 12.8691C126.203 12.5395 126.202 12.2384 126.148 11.9656C126.095 11.6906 125.982 11.4702 125.807 11.3043C125.632 11.1384 125.388 11.0554 125.077 11.0554C124.75 11.0554 124.462 11.1429 124.215 11.3179C123.969 11.4906 123.769 11.7213 123.615 12.01C123.462 12.2986 123.359 12.6134 123.304 12.9543C123.252 13.2816 123.252 13.5827 123.304 13.8577C123.357 14.1304 123.47 14.3486 123.645 14.5122C123.82 14.6759 124.065 14.7577 124.378 14.7577ZM127.463 15.5077L127.606 14.6247H127.79C127.935 14.6247 128.063 14.5941 128.172 14.5327C128.283 14.4691 128.383 14.3622 128.472 14.2122C128.56 14.0622 128.644 13.8554 128.724 13.5918C128.803 13.3259 128.885 12.9918 128.969 12.5895L129.443 10.2713H133.098L132.225 15.5077H131.226L131.956 11.1509H130.241L129.863 12.9304C129.772 13.3622 129.666 13.7395 129.546 14.0622C129.425 14.385 129.283 14.6543 129.119 14.8702C128.956 15.0838 128.765 15.2441 128.547 15.3509C128.328 15.4554 128.076 15.5077 127.79 15.5077H127.463ZM135.814 15.6134C135.316 15.6134 134.9 15.4997 134.566 15.2725C134.232 15.0429 133.997 14.7225 133.861 14.3111C133.726 13.8975 133.704 13.4168 133.792 12.8691C133.879 12.3327 134.053 11.8645 134.314 11.4645C134.578 11.0645 134.907 10.7543 135.303 10.5338C135.7 10.3134 136.142 10.2031 136.629 10.2031C137.126 10.2031 137.541 10.3179 137.873 10.5475C138.207 10.777 138.442 11.0986 138.579 11.5122C138.715 11.9259 138.739 12.4077 138.65 12.9577C138.564 13.4895 138.388 13.9554 138.122 14.3554C137.858 14.7531 137.529 15.0622 137.133 15.2827C136.738 15.5031 136.298 15.6134 135.814 15.6134ZM135.872 14.7577C136.199 14.7577 136.484 14.6713 136.728 14.4986C136.973 14.3259 137.173 14.0963 137.328 13.81C137.482 13.5236 137.588 13.21 137.645 12.8691C137.697 12.5395 137.696 12.2384 137.641 11.9656C137.589 11.6906 137.475 11.4702 137.3 11.3043C137.125 11.1384 136.882 11.0554 136.571 11.0554C136.244 11.0554 135.956 11.1429 135.708 11.3179C135.463 11.4906 135.263 11.7213 135.108 12.01C134.956 12.2986 134.853 12.6134 134.798 12.9543C134.746 13.2816 134.746 13.5827 134.798 13.8577C134.85 14.1304 134.964 14.3486 135.139 14.5122C135.314 14.6759 135.558 14.7577 135.872 14.7577ZM141.561 15.6134C141.052 15.6134 140.635 15.4986 140.31 15.2691C139.985 15.0372 139.759 14.7179 139.631 14.3111C139.504 13.9043 139.484 13.4384 139.57 12.9134C139.656 12.3816 139.832 11.9122 140.098 11.5054C140.367 11.0963 140.702 10.777 141.104 10.5475C141.509 10.3179 141.957 10.2031 142.451 10.2031C142.848 10.2031 143.19 10.277 143.477 10.4247C143.763 10.5702 143.98 10.7747 144.128 11.0384C144.276 11.302 144.339 11.61 144.319 11.9622H143.327C143.311 11.7168 143.22 11.5054 143.054 11.3281C142.888 11.1509 142.644 11.0622 142.321 11.0622C142.037 11.0622 141.776 11.1372 141.537 11.2872C141.298 11.435 141.097 11.6463 140.934 11.9213C140.77 12.1941 140.659 12.5168 140.6 12.8895C140.536 13.2713 140.539 13.6009 140.61 13.8781C140.68 14.1554 140.81 14.3702 140.998 14.5225C141.187 14.6747 141.424 14.7509 141.711 14.7509C141.906 14.7509 142.088 14.7156 142.256 14.6452C142.427 14.5725 142.577 14.4691 142.706 14.335C142.838 14.2009 142.94 14.0395 143.013 13.8509H144.009C143.911 14.1895 143.747 14.4918 143.518 14.7577C143.29 15.0236 143.011 15.2327 142.679 15.385C142.347 15.5372 141.975 15.6134 141.561 15.6134ZM58.5 40.5923C59.8154 41.3308 61.3846 41.7 63.2077 41.7C64.6692 41.7 65.9577 41.4769 67.0731 41.0308C68.1962 40.5769 69.1115 39.9462 69.8192 39.1385C70.5346 38.3231 71.0077 37.3692 71.2385 36.2769L66.6923 35.9769C66.5231 36.4231 66.2769 36.8 65.9538 37.1077C65.6308 37.4154 65.2423 37.6462 64.7885 37.8C64.3346 37.9538 63.8346 38.0308 63.2885 38.0308C62.4654 38.0308 61.7538 37.8577 61.1538 37.5115C60.5538 37.1654 60.0885 36.6731 59.7577 36.0346C59.4346 35.3962 59.2731 34.6385 59.2731 33.7615V33.75H71.3423V32.4C71.3423 30.8923 71.1308 29.5769 70.7077 28.4538C70.2846 27.3231 69.6923 26.3846 68.9308 25.6385C68.1769 24.8923 67.2923 24.3346 66.2769 23.9654C65.2692 23.5885 64.1808 23.4 63.0115 23.4C61.2731 23.4 59.7577 23.7846 58.4654 24.5538C57.1808 25.3231 56.1846 26.3962 55.4769 27.7731C54.7692 29.15 54.4154 30.75 54.4154 32.5731C54.4154 34.4423 54.7692 36.0615 55.4769 37.4308C56.1846 38.7923 57.1923 39.8462 58.5 40.5923ZM59.2777 30.7038C59.3073 30.0674 59.4712 29.4867 59.7692 28.9615C60.0923 28.3846 60.5385 27.9269 61.1077 27.5885C61.6846 27.2423 62.3462 27.0692 63.0923 27.0692C63.8077 27.0692 64.4346 27.2269 64.9731 27.5423C65.5192 27.85 65.9462 28.2769 66.2538 28.8231C66.5615 29.3692 66.7154 29.9962 66.7154 30.7038H59.2777ZM75.4615 40.8462C76.0077 41.3846 76.6615 41.6538 77.4231 41.6538C77.9231 41.6538 78.3808 41.5308 78.7962 41.2846C79.2115 41.0308 79.5462 40.6962 79.8 40.2808C80.0615 39.8577 80.1923 39.3923 80.1923 38.8846C80.1923 38.1308 79.9154 37.4846 79.3615 36.9462C78.8077 36.4077 78.1615 36.1385 77.4231 36.1385C76.6615 36.1385 76.0077 36.4077 75.4615 36.9462C74.9231 37.4846 74.6538 38.1308 74.6538 38.8846C74.6538 39.6462 74.9231 40.3 75.4615 40.8462ZM75.4615 28.4308C76.0077 28.9692 76.6615 29.2385 77.4231 29.2385C77.9231 29.2385 78.3808 29.1154 78.7962 28.8692C79.2115 28.6231 79.5462 28.2923 79.8 27.8769C80.0615 27.4538 80.1923 26.9846 80.1923 26.4692C80.1923 25.7154 79.9154 25.0731 79.3615 24.5423C78.8077 24.0038 78.1615 23.7346 77.4231 23.7346C76.6615 23.7346 76.0077 24.0038 75.4615 24.5423C74.9231 25.0731 74.6538 25.7154 74.6538 26.4692C74.6538 27.2385 74.9231 27.8923 75.4615 28.4308ZM93.7788 41.1C94.6635 41.4923 95.6712 41.6885 96.8019 41.6885C97.6788 41.6885 98.4519 41.5731 99.1212 41.3423C99.7904 41.1038 100.363 40.7769 100.84 40.3615C101.317 39.9385 101.698 39.45 101.983 38.8962H102.121V41.3538H106.783V29.4C106.783 28.3462 106.579 27.4423 106.171 26.6885C105.763 25.9269 105.206 25.3038 104.498 24.8192C103.798 24.3346 102.994 23.9769 102.087 23.7462C101.187 23.5154 100.244 23.4 99.2596 23.4C97.8442 23.4 96.5981 23.6154 95.5212 24.0462C94.4519 24.4692 93.5788 25.0769 92.9019 25.8692C92.225 26.6538 91.7712 27.5846 91.5404 28.6615L96.0865 29.0308C96.2558 28.4462 96.6019 27.9615 97.125 27.5769C97.6481 27.1846 98.3519 26.9885 99.2365 26.9885C100.075 26.9885 100.721 27.1885 101.175 27.5885C101.637 27.9885 101.867 28.5538 101.867 29.2846V29.3538C101.867 29.7308 101.725 30.0154 101.44 30.2077C101.156 30.4 100.698 30.5462 100.067 30.6462C99.4365 30.7385 98.6058 30.8385 97.575 30.9462C96.6981 31.0308 95.8596 31.1769 95.0596 31.3846C94.2673 31.5923 93.5596 31.9 92.9365 32.3077C92.3135 32.7154 91.8212 33.2538 91.4596 33.9231C91.0981 34.5923 90.9173 35.4192 90.9173 36.4038C90.9173 37.5731 91.1712 38.55 91.6788 39.3346C92.1942 40.1115 92.8942 40.7 93.7788 41.1ZM100.125 37.8692C99.5712 38.1538 98.9327 38.2962 98.2096 38.2962C97.4558 38.2962 96.8327 38.1231 96.3404 37.7769C95.8558 37.4231 95.6135 36.9115 95.6135 36.2423C95.6135 35.7808 95.7327 35.3962 95.9712 35.0885C96.2096 34.7731 96.5442 34.5231 96.975 34.3385C97.4058 34.1538 97.9096 34.0192 98.4865 33.9346C98.7558 33.8962 99.0558 33.8538 99.3865 33.8077C99.7173 33.7538 100.048 33.6962 100.379 33.6346C100.71 33.5654 101.006 33.4923 101.267 33.4154C101.537 33.3308 101.748 33.2385 101.902 33.1385V35.0192C101.902 35.6423 101.744 36.2 101.429 36.6923C101.113 37.1846 100.679 37.5769 100.125 37.8692ZM122.735 27.4962V23.6308H110.596V41.3538H115.373V27.4962H122.735ZM136.809 23.6308L130.428 34.8692V23.6308H125.732V41.3538H130.613L136.97 30.0808V41.3538H141.655V23.6308H136.809ZM145.595 23.6308V48H150.511V38.5154H150.661C150.884 39.0077 151.207 39.4962 151.63 39.9808C152.053 40.4577 152.595 40.8538 153.257 41.1692C153.926 41.4846 154.738 41.6423 155.691 41.6423C157.038 41.6423 158.253 41.2962 159.338 40.6038C160.43 39.9038 161.291 38.8769 161.922 37.5231C162.561 36.1615 162.88 34.4923 162.88 32.5154C162.88 30.4846 162.553 28.7962 161.899 27.45C161.245 26.0962 160.372 25.0846 159.28 24.4154C158.188 23.7385 156.995 23.4 155.703 23.4C154.711 23.4 153.88 23.5692 153.211 23.9077C152.549 24.2385 152.011 24.6538 151.595 25.1538C151.188 25.6462 150.876 26.1308 150.661 26.6077H150.441V23.6308H145.595ZM150.845 35.25C150.553 34.4654 150.407 33.5462 150.407 32.4923C150.407 31.4385 150.553 30.5231 150.845 29.7462C151.137 28.9692 151.557 28.3692 152.103 27.9462C152.657 27.5231 153.334 27.3115 154.134 27.3115C154.941 27.3115 155.622 27.5308 156.176 27.9692C156.73 28.4077 157.149 29.0154 157.434 29.7923C157.718 30.5692 157.861 31.4692 157.861 32.4923C157.861 33.5231 157.714 34.4346 157.422 35.2269C157.137 36.0115 156.718 36.6269 156.164 37.0731C155.611 37.5115 154.934 37.7308 154.134 37.7308C153.341 37.7308 152.668 37.5154 152.114 37.0846C151.561 36.6462 151.137 36.0346 150.845 35.25ZM166.866 47.85C167.413 47.95 167.997 48 168.62 48C169.836 48 170.874 47.8038 171.736 47.4115C172.597 47.0269 173.309 46.4769 173.87 45.7615C174.439 45.0538 174.889 44.2231 175.22 43.2692L182.109 23.6308H176.905L173.201 36.6462H173.016L169.347 23.6308H164.178L170.536 41.8615L170.247 42.6115C170.032 43.1654 169.751 43.5577 169.405 43.7885C169.066 44.0192 168.663 44.1269 168.193 44.1115C167.732 44.0962 167.213 44 166.636 43.8231L165.528 47.4923C165.882 47.6385 166.328 47.7577 166.866 47.85ZM195.701 23.6308L189.32 34.8692V23.6308H184.624V41.3538H189.505L195.863 30.0808V41.3538H200.547V23.6308H195.701ZM198.286 17.4462H194.859C194.859 17.9923 194.682 18.4731 194.328 18.8885C193.974 19.3038 193.389 19.5115 192.574 19.5115C191.736 19.5115 191.139 19.3 190.786 18.8769C190.439 18.4538 190.27 17.9769 190.278 17.4462H186.874C186.874 18.8462 187.386 19.9731 188.409 20.8269C189.432 21.6808 190.82 22.1077 192.574 22.1077C194.32 22.1077 195.705 21.6808 196.728 20.8269C197.759 19.9731 198.278 18.8462 198.286 17.4462Z" fill="#E3132C"/>
</svg>
