<svg width="386" height="338" viewBox="0 0 386 338" fill="none" xmlns="http://www.w3.org/2000/svg">
<g clip-path="url(#clip0_93_11064)">
<rect x="1" y="1" width="384" height="336" rx="16" fill="white"/>
<path fill-rule="evenodd" clip-rule="evenodd" d="M-27 58H331.5L327.5 54H333.5L343.5 58H359C364.5 58 367.75 59.25 369 62H-27V58Z" fill="#E3132C"/>
<g clip-path="url(#clip1_93_11064)">
<mask id="mask0_93_11064" style="mask-type:luminance" maskUnits="userSpaceOnUse" x="265" y="23" width="101" height="16">
<path d="M265 23H365V39H265V23Z" fill="white"/>
</mask>
<g mask="url(#mask0_93_11064)">
<path d="M277.898 31.593C281.668 31.4572 283.957 29.8294 283.957 27.9133C283.957 25.8708 281.462 24.2155 277.214 24.2155H276.603L277.854 23L275.995 23.0072L272.931 24.2155H268.05C266.335 24.2155 265.382 24.6438 265 25.4793H275.034C277.801 25.4793 279.66 25.9063 279.66 27.8509C279.66 29.9465 277.424 30.3542 275.034 30.3542H270.528L274.517 34.7261C277.898 38.3545 281.068 39 285.005 39L277.898 31.593Z" fill="#E3132C"/>
</g>
<mask id="mask1_93_11064" style="mask-type:luminance" maskUnits="userSpaceOnUse" x="265" y="23" width="101" height="16">
<path d="M265 23H365V39H265V23Z" fill="white"/>
</mask>
<g mask="url(#mask1_93_11064)">
<path d="M296.526 32.5748C295.771 32.5748 295.16 32.4822 294.695 32.3709V28.1564C295.177 28.0973 295.8 28.0464 296.526 28.0464C298.271 28.0464 299.289 28.7642 299.289 30.2593C299.289 31.7824 298.199 32.5742 296.526 32.5742M296.788 27.1376C295.32 27.1376 293.895 27.3165 292.368 27.3753V35.8416H294.695V33.3723C295.36 33.4356 296.092 33.4826 296.789 33.4826C299.915 33.4826 301.893 32.5452 301.893 30.259C301.893 27.9728 299.915 27.1382 296.788 27.1382M309.861 35.1539C308.014 35.1539 306.734 33.7767 306.734 31.5927C306.734 29.4241 308.014 28.0023 309.861 28.0023C311.722 28.0023 312.987 29.4238 312.987 31.5924C312.987 33.761 311.722 35.1533 309.861 35.1533M309.861 27.0936C306.414 27.0936 304.131 28.9253 304.131 31.5921C304.131 34.259 306.414 36.0614 309.861 36.0614C313.307 36.0614 315.59 34.2587 315.59 31.5915C315.59 28.9253 313.307 27.0933 309.861 27.0933" fill="#E3132C"/>
</g>
<path d="M349.514 27.3667L344.352 34.0686V27.3667H342.025V35.8806H344.352L349.514 29.1643V35.8806H351.84V27.3667H350.895" fill="#E3132C"/>
<mask id="mask2_93_11064" style="mask-type:luminance" maskUnits="userSpaceOnUse" x="265" y="23" width="101" height="16">
<path d="M265 23H365V39H265V23Z" fill="white"/>
</mask>
<g mask="url(#mask2_93_11064)">
<path d="M324.126 28.0321C325.928 28.0321 327.005 29.0138 327.005 29.0138L327.484 27.7531C327.484 27.7531 326.132 27.0938 323.835 27.0938C320.52 27.0938 318.193 28.9258 318.193 31.5926C318.193 34.2595 320.374 36.0616 323.98 36.0616C326.191 36.0616 327.47 35.3583 327.47 35.3583V34.0031C327.47 34.0031 326.394 35.0431 324.227 35.0431C322.017 35.0431 320.795 33.7461 320.795 31.5926C320.795 29.4533 322.046 28.0318 324.125 28.0318M360.507 32.0031C358.994 32.0031 358.079 31.2702 358.079 29.9521C358.079 28.6624 358.994 28.0468 360.507 28.0468C361.328 28.0468 362.092 28.1183 362.674 28.194V32.0034L360.507 32.0031ZM360.245 27.1381C357.424 27.1381 355.476 27.8559 355.476 29.9663C355.476 31.361 356.267 32.1832 357.657 32.5819L354.56 36.0052H354.85C356.973 36.0052 358.02 35.5507 359.387 33.8804L360.199 32.8811C360.215 32.8811 360.229 32.882 360.245 32.882H362.673V35.8418H365V27.3688C363.037 27.3103 361.714 27.1381 360.245 27.1381M335.453 28.0321C337.255 28.0321 338.331 29.0138 338.331 29.0138L338.812 27.7531C338.812 27.7531 337.459 27.0938 335.162 27.0938C331.846 27.0938 329.52 28.9258 329.52 31.5926C329.52 34.2595 331.701 36.0616 335.307 36.0616C337.517 36.0616 338.797 35.3583 338.797 35.3583V34.0031C338.797 34.0031 337.72 35.0431 335.554 35.0431C333.343 35.0431 332.122 33.7461 332.122 31.5926C332.123 29.4533 333.373 28.0318 335.453 28.0318" fill="#E3132C"/>
</g>
</g>
</g>
<rect x="1" y="1" width="384" height="336" rx="16" stroke="#E1E4EB" stroke-width="1.5"/>
<defs>
<clipPath id="clip0_93_11064">
<rect x="1" y="1" width="384" height="336" rx="16" fill="white"/>
</clipPath>
<clipPath id="clip1_93_11064">
<rect width="100" height="16" fill="white" transform="translate(265 23)"/>
</clipPath>
</defs>
</svg>
