<svg width="384" height="96" viewBox="0 0 384 96" fill="none" xmlns="http://www.w3.org/2000/svg">
<rect width="384" height="96" rx="16" fill="#E1E4EB"/>
<path fill-rule="evenodd" clip-rule="evenodd" d="M57.3298 46.2095C67.0698 45.8587 72.9847 41.6515 72.9847 36.699C72.9847 31.4198 66.5393 27.1416 55.5603 27.1416H53.9826L57.2154 24L52.4126 24.0187L44.4947 27.1416H31.8808C27.4493 27.1416 24.9861 28.2486 24 30.4079H49.9277C57.0769 30.4079 61.882 31.5118 61.882 36.5376C61.882 41.9539 56.1048 43.0079 49.9277 43.0079H38.2844L48.5913 54.3075C57.3275 63.6856 65.5207 65.3538 75.6923 65.3538L57.3298 46.2095ZM87.0879 36.085C86.9651 36.8191 86.7265 37.4486 86.3719 37.9736C86.0197 38.4986 85.5879 38.902 85.0765 39.1838C84.5674 39.4634 84.0174 39.6031 83.4265 39.6031C82.8106 39.6031 82.2844 39.4566 81.8481 39.1634C81.414 38.8679 81.1026 38.4486 80.914 37.9054C80.7253 37.36 80.6935 36.71 80.8185 35.9554C80.9413 35.2213 81.1788 34.5918 81.531 34.0668C81.8856 33.5395 82.3185 33.135 82.8299 32.8531C83.3435 32.5713 83.8981 32.4304 84.4935 32.4304C85.1049 32.4304 85.6265 32.5781 86.0583 32.8736C86.4924 33.1668 86.8038 33.5872 86.9924 34.135C87.181 34.6804 87.2128 35.3304 87.0879 36.085ZM86.0617 35.9554C86.1549 35.3986 86.1435 34.9304 86.0276 34.5509C85.914 34.1691 85.7197 33.8804 85.4447 33.685C85.1697 33.4895 84.8379 33.3918 84.4492 33.3918C84.0356 33.3918 83.6481 33.4963 83.2867 33.7054C82.9276 33.9145 82.6208 34.2191 82.3663 34.6191C82.1117 35.0191 81.9379 35.5077 81.8447 36.085C81.7492 36.6418 81.7594 37.11 81.8754 37.4895C81.9913 37.8691 82.1867 38.1566 82.4617 38.352C82.739 38.5452 83.0719 38.6418 83.4606 38.6418C83.8719 38.6418 84.2572 38.5384 84.6163 38.3316C84.9776 38.1225 85.2856 37.8191 85.5401 37.4213C85.7947 37.0213 85.9685 36.5327 86.0617 35.9554ZM89.9421 39.6134C89.433 39.6134 89.016 39.4986 88.691 39.2691C88.366 39.0372 88.1398 38.7179 88.0126 38.3111C87.8853 37.9043 87.8648 37.4384 87.9512 36.9134C88.0376 36.3816 88.2137 35.9122 88.4796 35.5054C88.7478 35.0963 89.083 34.777 89.4853 34.5475C89.8898 34.3179 90.3387 34.2031 90.8319 34.2031C91.2296 34.2031 91.5717 34.277 91.858 34.4247C92.1444 34.5702 92.3614 34.7747 92.5092 35.0384C92.6569 35.302 92.7205 35.61 92.7001 35.9622H91.708C91.6921 35.7168 91.6012 35.5054 91.4353 35.3281C91.2694 35.1509 91.0251 35.0622 90.7023 35.0622C90.4183 35.0622 90.1569 35.1372 89.9182 35.2872C89.6796 35.435 89.4785 35.6463 89.3148 35.9213C89.1512 36.1941 89.0398 36.5168 88.9807 36.8895C88.9171 37.2713 88.9205 37.6009 88.991 37.8781C89.0614 38.1554 89.191 38.3702 89.3796 38.5225C89.5683 38.6747 89.8057 38.7509 90.0921 38.7509C90.2876 38.7509 90.4694 38.7156 90.6376 38.6452C90.808 38.5725 90.958 38.4691 91.0876 38.335C91.2194 38.2009 91.3217 38.0395 91.3944 37.8509H92.3898C92.2921 38.1895 92.1285 38.4918 91.8989 38.7577C91.6717 39.0236 91.3921 39.2327 91.0603 39.385C90.7285 39.5372 90.3558 39.6134 89.9421 39.6134ZM93.5302 35.1509L93.6734 34.2713H98.0915L97.9484 35.1509H96.2404L95.5245 39.5077H94.5256L95.2415 35.1509H93.5302ZM99.5634 39.6236C99.2316 39.6236 98.9418 39.5622 98.6941 39.4395C98.4464 39.3145 98.2634 39.1338 98.1452 38.8975C98.0271 38.6611 97.9964 38.3713 98.0532 38.0281C98.1032 37.7327 98.2009 37.4895 98.3464 37.2986C98.4941 37.1077 98.6736 36.9566 98.885 36.8452C99.0964 36.7316 99.3259 36.6463 99.5736 36.5895C99.8214 36.5327 100.071 36.4906 100.324 36.4634C100.642 36.427 100.9 36.3963 101.098 36.3713C101.298 36.3463 101.448 36.3077 101.548 36.2554C101.648 36.2009 101.708 36.1122 101.728 35.9895V35.9656C101.776 35.6702 101.733 35.4406 101.599 35.277C101.467 35.1111 101.237 35.0281 100.91 35.0281C100.569 35.0281 100.283 35.1031 100.051 35.2531C99.8214 35.4031 99.6521 35.5713 99.543 35.7577L98.6293 35.5395C98.793 35.2213 99.0009 34.9645 99.2532 34.7691C99.5077 34.5713 99.7861 34.4281 100.088 34.3395C100.391 34.2486 100.7 34.2031 101.016 34.2031C101.225 34.2031 101.442 34.2281 101.667 34.2781C101.892 34.3259 102.096 34.4145 102.28 34.5441C102.467 34.6736 102.605 34.8588 102.696 35.0997C102.787 35.3384 102.801 35.6486 102.737 36.0304L102.161 39.5077H101.166L101.288 38.7918H101.248C101.161 38.9236 101.041 39.0531 100.886 39.1804C100.734 39.3077 100.548 39.4134 100.327 39.4975C100.107 39.5816 99.8521 39.6236 99.5634 39.6236ZM99.9111 38.8054C100.195 38.8054 100.446 38.7497 100.665 38.6384C100.885 38.527 101.063 38.3816 101.2 38.202C101.336 38.0202 101.421 37.8259 101.455 37.6191L101.568 36.9441C101.525 36.9804 101.449 37.0134 101.34 37.0429C101.233 37.0725 101.112 37.0986 100.978 37.1213C100.844 37.1441 100.712 37.1634 100.583 37.1793C100.455 37.1952 100.35 37.21 100.266 37.2236C100.066 37.2486 99.8782 37.2906 99.7032 37.3497C99.5305 37.4088 99.3861 37.4941 99.2702 37.6054C99.1543 37.7145 99.0816 37.86 99.0521 38.0418C99.0111 38.2941 99.0714 38.485 99.2327 38.6145C99.3964 38.7418 99.6225 38.8054 99.9111 38.8054ZM104.395 34.2713H106.563C107.152 34.2713 107.598 34.3975 107.903 34.6497C108.21 34.902 108.327 35.2418 108.254 35.6691C108.204 35.9781 108.065 36.2225 107.838 36.402C107.611 36.5793 107.334 36.6986 107.006 36.76C107.234 36.7872 107.436 36.8577 107.613 36.9713C107.79 37.0827 107.922 37.2338 108.009 37.4247C108.095 37.6134 108.118 37.8372 108.077 38.0963C108.029 38.3736 107.915 38.6191 107.736 38.8327C107.556 39.0441 107.321 39.21 107.03 39.3304C106.742 39.4486 106.406 39.5077 106.024 39.5077H103.522L104.395 34.2713ZM104.623 38.6554H106.168C106.422 38.6554 106.631 38.5952 106.795 38.4747C106.959 38.352 107.055 38.1884 107.085 37.9838C107.128 37.7384 107.088 37.5463 106.965 37.4077C106.845 37.2691 106.661 37.1997 106.413 37.1997H104.869L104.623 38.6554ZM104.988 36.4531H106.209C106.399 36.4531 106.569 36.4259 106.717 36.3713C106.864 36.3168 106.984 36.2395 107.074 36.1395C107.165 36.0372 107.222 35.9168 107.245 35.7781C107.281 35.5781 107.224 35.4213 107.074 35.3077C106.927 35.1918 106.709 35.1338 106.42 35.1338H105.21L104.988 36.4531ZM110.102 38.6281L110.381 36.9509H111.677C111.965 36.9509 112.19 37.0304 112.352 37.1895C112.515 37.3486 112.576 37.5554 112.532 37.81C112.496 38.0509 112.37 38.2475 112.154 38.3997C111.94 38.552 111.686 38.6281 111.39 38.6281H110.102ZM110.528 36.0713H111.823C112.462 36.0713 112.927 36.2304 113.218 36.5486C113.511 36.8668 113.618 37.277 113.538 37.7793C113.481 38.1066 113.353 38.4009 113.153 38.6622C112.953 38.9236 112.692 39.1304 112.369 39.2827C112.048 39.4327 111.674 39.5077 111.247 39.5077H108.96L109.832 34.2713H110.828L110.528 36.0713ZM119.117 39.6134C118.608 39.6134 118.191 39.4986 117.866 39.2691C117.541 39.0372 117.315 38.7179 117.188 38.3111C117.06 37.9043 117.04 37.4384 117.126 36.9134C117.213 36.3816 117.389 35.9122 117.655 35.5054C117.923 35.0963 118.258 34.777 118.66 34.5475C119.065 34.3179 119.514 34.2031 120.007 34.2031C120.405 34.2031 120.747 34.277 121.033 34.4247C121.319 34.5702 121.536 34.7747 121.684 35.0384C121.832 35.302 121.896 35.61 121.875 35.9622H120.883C120.867 35.7168 120.776 35.5054 120.61 35.3281C120.444 35.1509 120.2 35.0622 119.877 35.0622C119.593 35.0622 119.332 35.1372 119.093 35.2872C118.855 35.435 118.653 35.6463 118.49 35.9213C118.326 36.1941 118.215 36.5168 118.156 36.8895C118.092 37.2713 118.096 37.6009 118.166 37.8781C118.236 38.1554 118.366 38.3702 118.555 38.5225C118.743 38.6747 118.981 38.7509 119.267 38.7509C119.463 38.7509 119.644 38.7156 119.813 38.6452C119.983 38.5725 120.133 38.4691 120.263 38.335C120.394 38.2009 120.497 38.0395 120.569 37.8509H121.565C121.467 38.1895 121.303 38.4918 121.074 38.7577C120.847 39.0236 120.567 39.2327 120.235 39.385C119.903 39.5372 119.531 39.6134 119.117 39.6134ZM123.248 34.2713H125.416C126.005 34.2713 126.451 34.3975 126.756 34.6497C127.063 34.902 127.18 35.2418 127.107 35.6691C127.057 35.9781 126.919 36.2225 126.691 36.402C126.464 36.5793 126.187 36.6986 125.859 36.76C126.087 36.7872 126.289 36.8577 126.466 36.9713C126.644 37.0827 126.775 37.2338 126.862 37.4247C126.948 37.6134 126.971 37.8372 126.93 38.0963C126.882 38.3736 126.769 38.6191 126.589 38.8327C126.409 39.0441 126.174 39.21 125.883 39.3304C125.595 39.4486 125.259 39.5077 124.878 39.5077H122.375L123.248 34.2713ZM123.476 38.6554H125.021C125.275 38.6554 125.484 38.5952 125.648 38.4747C125.812 38.352 125.908 38.1884 125.938 37.9838C125.981 37.7384 125.941 37.5463 125.819 37.4077C125.698 37.2691 125.514 37.1997 125.266 37.1997H123.722L123.476 38.6554ZM123.841 36.4531H125.062C125.253 36.4531 125.422 36.4259 125.57 36.3713C125.717 36.3168 125.837 36.2395 125.928 36.1395C126.019 36.0372 126.075 35.9168 126.098 35.7781C126.134 35.5781 126.078 35.4213 125.928 35.3077C125.78 35.1918 125.562 35.1338 125.273 35.1338H124.063L123.841 36.4531ZM130.039 39.6134C129.541 39.6134 129.125 39.4997 128.791 39.2725C128.457 39.0429 128.222 38.7225 128.086 38.3111C127.951 37.8975 127.929 37.4168 128.017 36.8691C128.104 36.3327 128.278 35.8645 128.539 35.4645C128.803 35.0645 129.132 34.7543 129.528 34.5338C129.925 34.3134 130.367 34.2031 130.854 34.2031C131.351 34.2031 131.766 34.3179 132.098 34.5475C132.432 34.777 132.667 35.0986 132.804 35.5122C132.94 35.9259 132.964 36.4077 132.875 36.9577C132.789 37.4895 132.613 37.9554 132.347 38.3554C132.083 38.7531 131.754 39.0622 131.358 39.2827C130.963 39.5031 130.523 39.6134 130.039 39.6134ZM130.097 38.7577C130.424 38.7577 130.709 38.6713 130.953 38.4986C131.198 38.3259 131.398 38.0963 131.553 37.81C131.707 37.5236 131.813 37.21 131.87 36.8691C131.922 36.5395 131.921 36.2384 131.866 35.9656C131.814 35.6906 131.7 35.4702 131.525 35.3043C131.35 35.1384 131.107 35.0554 130.796 35.0554C130.469 35.0554 130.181 35.1429 129.933 35.3179C129.688 35.4906 129.488 35.7213 129.333 36.01C129.181 36.2986 129.078 36.6134 129.023 36.9543C128.971 37.2816 128.971 37.5827 129.023 37.8577C129.075 38.1304 129.189 38.3486 129.364 38.5122C129.539 38.6759 129.783 38.7577 130.097 38.7577ZM134.838 38.0793L137.777 34.2713H138.875L138.002 39.5077H137.003L137.634 35.6963L134.702 39.5077H133.597L134.47 34.2713H135.465L134.838 38.0793ZM137.627 32.4986H138.462C138.398 32.8827 138.211 33.1952 137.9 33.4361C137.588 33.6747 137.201 33.7941 136.737 33.7941C136.278 33.7941 135.934 33.6747 135.704 33.4361C135.475 33.1952 135.393 32.8827 135.459 32.4986H136.29C136.263 32.6691 136.288 32.8202 136.365 32.952C136.445 33.0816 136.606 33.1463 136.85 33.1463C137.088 33.1463 137.27 33.0816 137.395 32.952C137.52 32.8225 137.597 32.6713 137.627 32.4986ZM146.133 34.2713L145.99 35.1509H143.645L142.919 39.5077H141.913L142.786 34.2713H146.133ZM148.32 39.6134C147.823 39.6134 147.407 39.4997 147.073 39.2725C146.738 39.0429 146.503 38.7225 146.367 38.3111C146.233 37.8975 146.21 37.4168 146.299 36.8691C146.385 36.3327 146.559 35.8645 146.82 35.4645C147.084 35.0645 147.413 34.7543 147.809 34.5338C148.207 34.3134 148.649 34.2031 149.135 34.2031C149.633 34.2031 150.048 34.3179 150.379 34.5475C150.713 34.777 150.949 35.0986 151.085 35.5122C151.221 35.9259 151.245 36.4077 151.157 36.9577C151.07 37.4895 150.894 37.9554 150.628 38.3554C150.365 38.7531 150.035 39.0622 149.64 39.2827C149.244 39.5031 148.804 39.6134 148.32 39.6134ZM148.378 38.7577C148.705 38.7577 148.991 38.6713 149.234 38.4986C149.479 38.3259 149.679 38.0963 149.834 37.81C149.988 37.5236 150.094 37.21 150.151 36.8691C150.203 36.5395 150.202 36.2384 150.148 35.9656C150.095 35.6906 149.982 35.4702 149.807 35.3043C149.632 35.1384 149.388 35.0554 149.077 35.0554C148.75 35.0554 148.462 35.1429 148.215 35.3179C147.969 35.4906 147.769 35.7213 147.615 36.01C147.462 36.2986 147.359 36.6134 147.304 36.9543C147.252 37.2816 147.252 37.5827 147.304 37.8577C147.357 38.1304 147.47 38.3486 147.645 38.5122C147.82 38.6759 148.065 38.7577 148.378 38.7577ZM151.463 39.5077L151.606 38.6247H151.79C151.935 38.6247 152.063 38.5941 152.172 38.5327C152.283 38.4691 152.383 38.3622 152.472 38.2122C152.56 38.0622 152.644 37.8554 152.724 37.5918C152.803 37.3259 152.885 36.9918 152.969 36.5895L153.443 34.2713H157.098L156.225 39.5077H155.226L155.956 35.1509H154.241L153.863 36.9304C153.772 37.3622 153.666 37.7395 153.546 38.0622C153.425 38.385 153.283 38.6543 153.119 38.8702C152.956 39.0838 152.765 39.2441 152.547 39.3509C152.328 39.4554 152.076 39.5077 151.79 39.5077H151.463ZM159.814 39.6134C159.316 39.6134 158.9 39.4997 158.566 39.2725C158.232 39.0429 157.997 38.7225 157.861 38.3111C157.726 37.8975 157.704 37.4168 157.792 36.8691C157.879 36.3327 158.053 35.8645 158.314 35.4645C158.578 35.0645 158.907 34.7543 159.303 34.5338C159.7 34.3134 160.142 34.2031 160.629 34.2031C161.126 34.2031 161.541 34.3179 161.873 34.5475C162.207 34.777 162.442 35.0986 162.579 35.5122C162.715 35.9259 162.739 36.4077 162.65 36.9577C162.564 37.4895 162.388 37.9554 162.122 38.3554C161.858 38.7531 161.529 39.0622 161.133 39.2827C160.738 39.5031 160.298 39.6134 159.814 39.6134ZM159.872 38.7577C160.199 38.7577 160.484 38.6713 160.728 38.4986C160.973 38.3259 161.173 38.0963 161.328 37.81C161.482 37.5236 161.588 37.21 161.645 36.8691C161.697 36.5395 161.696 36.2384 161.641 35.9656C161.589 35.6906 161.475 35.4702 161.3 35.3043C161.125 35.1384 160.882 35.0554 160.571 35.0554C160.244 35.0554 159.956 35.1429 159.708 35.3179C159.463 35.4906 159.263 35.7213 159.108 36.01C158.956 36.2986 158.853 36.6134 158.798 36.9543C158.746 37.2816 158.746 37.5827 158.798 37.8577C158.85 38.1304 158.964 38.3486 159.139 38.5122C159.314 38.6759 159.558 38.7577 159.872 38.7577ZM165.561 39.6134C165.052 39.6134 164.635 39.4986 164.31 39.2691C163.985 39.0372 163.759 38.7179 163.631 38.3111C163.504 37.9043 163.484 37.4384 163.57 36.9134C163.656 36.3816 163.832 35.9122 164.098 35.5054C164.367 35.0963 164.702 34.777 165.104 34.5475C165.509 34.3179 165.957 34.2031 166.451 34.2031C166.848 34.2031 167.19 34.277 167.477 34.4247C167.763 34.5702 167.98 34.7747 168.128 35.0384C168.276 35.302 168.339 35.61 168.319 35.9622H167.327C167.311 35.7168 167.22 35.5054 167.054 35.3281C166.888 35.1509 166.644 35.0622 166.321 35.0622C166.037 35.0622 165.776 35.1372 165.537 35.2872C165.298 35.435 165.097 35.6463 164.934 35.9213C164.77 36.1941 164.659 36.5168 164.6 36.8895C164.536 37.2713 164.539 37.6009 164.61 37.8781C164.68 38.1554 164.81 38.3702 164.998 38.5225C165.187 38.6747 165.424 38.7509 165.711 38.7509C165.906 38.7509 166.088 38.7156 166.256 38.6452C166.427 38.5725 166.577 38.4691 166.706 38.335C166.838 38.2009 166.94 38.0395 167.013 37.8509H168.009C167.911 38.1895 167.747 38.4918 167.518 38.7577C167.29 39.0236 167.011 39.2327 166.679 39.385C166.347 39.5372 165.975 39.6134 165.561 39.6134ZM82.5 64.5923C83.8154 65.3308 85.3846 65.7 87.2077 65.7C88.6692 65.7 89.9577 65.4769 91.0731 65.0308C92.1962 64.5769 93.1115 63.9462 93.8192 63.1385C94.5346 62.3231 95.0077 61.3692 95.2385 60.2769L90.6923 59.9769C90.5231 60.4231 90.2769 60.8 89.9538 61.1077C89.6308 61.4154 89.2423 61.6462 88.7885 61.8C88.3346 61.9538 87.8346 62.0308 87.2885 62.0308C86.4654 62.0308 85.7538 61.8577 85.1538 61.5115C84.5538 61.1654 84.0885 60.6731 83.7577 60.0346C83.4346 59.3962 83.2731 58.6385 83.2731 57.7615V57.75H95.3423V56.4C95.3423 54.8923 95.1308 53.5769 94.7077 52.4538C94.2846 51.3231 93.6923 50.3846 92.9308 49.6385C92.1769 48.8923 91.2923 48.3346 90.2769 47.9654C89.2692 47.5885 88.1808 47.4 87.0115 47.4C85.2731 47.4 83.7577 47.7846 82.4654 48.5538C81.1808 49.3231 80.1846 50.3962 79.4769 51.7731C78.7692 53.15 78.4154 54.75 78.4154 56.5731C78.4154 58.4423 78.7692 60.0615 79.4769 61.4308C80.1846 62.7923 81.1923 63.8462 82.5 64.5923ZM83.2777 54.7038C83.3073 54.0674 83.4712 53.4867 83.7692 52.9615C84.0923 52.3846 84.5385 51.9269 85.1077 51.5885C85.6846 51.2423 86.3462 51.0692 87.0923 51.0692C87.8077 51.0692 88.4346 51.2269 88.9731 51.5423C89.5192 51.85 89.9462 52.2769 90.2538 52.8231C90.5615 53.3692 90.7154 53.9962 90.7154 54.7038H83.2777ZM99.4615 64.8462C100.008 65.3846 100.662 65.6538 101.423 65.6538C101.923 65.6538 102.381 65.5308 102.796 65.2846C103.212 65.0308 103.546 64.6962 103.8 64.2808C104.062 63.8577 104.192 63.3923 104.192 62.8846C104.192 62.1308 103.915 61.4846 103.362 60.9462C102.808 60.4077 102.162 60.1385 101.423 60.1385C100.662 60.1385 100.008 60.4077 99.4615 60.9462C98.9231 61.4846 98.6538 62.1308 98.6538 62.8846C98.6538 63.6462 98.9231 64.3 99.4615 64.8462ZM99.4615 52.4308C100.008 52.9692 100.662 53.2385 101.423 53.2385C101.923 53.2385 102.381 53.1154 102.796 52.8692C103.212 52.6231 103.546 52.2923 103.8 51.8769C104.062 51.4538 104.192 50.9846 104.192 50.4692C104.192 49.7154 103.915 49.0731 103.362 48.5423C102.808 48.0038 102.162 47.7346 101.423 47.7346C100.662 47.7346 100.008 48.0038 99.4615 48.5423C98.9231 49.0731 98.6538 49.7154 98.6538 50.4692C98.6538 51.2385 98.9231 51.8923 99.4615 52.4308ZM117.779 65.1C118.663 65.4923 119.671 65.6885 120.802 65.6885C121.679 65.6885 122.452 65.5731 123.121 65.3423C123.79 65.1038 124.363 64.7769 124.84 64.3615C125.317 63.9385 125.698 63.45 125.983 62.8962H126.121V65.3538H130.783V53.4C130.783 52.3462 130.579 51.4423 130.171 50.6885C129.763 49.9269 129.206 49.3038 128.498 48.8192C127.798 48.3346 126.994 47.9769 126.087 47.7462C125.187 47.5154 124.244 47.4 123.26 47.4C121.844 47.4 120.598 47.6154 119.521 48.0462C118.452 48.4692 117.579 49.0769 116.902 49.8692C116.225 50.6538 115.771 51.5846 115.54 52.6615L120.087 53.0308C120.256 52.4462 120.602 51.9615 121.125 51.5769C121.648 51.1846 122.352 50.9885 123.237 50.9885C124.075 50.9885 124.721 51.1885 125.175 51.5885C125.637 51.9885 125.867 52.5538 125.867 53.2846V53.3538C125.867 53.7308 125.725 54.0154 125.44 54.2077C125.156 54.4 124.698 54.5462 124.067 54.6462C123.437 54.7385 122.606 54.8385 121.575 54.9462C120.698 55.0308 119.86 55.1769 119.06 55.3846C118.267 55.5923 117.56 55.9 116.937 56.3077C116.313 56.7154 115.821 57.2538 115.46 57.9231C115.098 58.5923 114.917 59.4192 114.917 60.4038C114.917 61.5731 115.171 62.55 115.679 63.3346C116.194 64.1115 116.894 64.7 117.779 65.1ZM124.125 61.8692C123.571 62.1538 122.933 62.2962 122.21 62.2962C121.456 62.2962 120.833 62.1231 120.34 61.7769C119.856 61.4231 119.613 60.9115 119.613 60.2423C119.613 59.7808 119.733 59.3962 119.971 59.0885C120.21 58.7731 120.544 58.5231 120.975 58.3385C121.406 58.1538 121.91 58.0192 122.487 57.9346C122.756 57.8962 123.056 57.8538 123.387 57.8077C123.717 57.7538 124.048 57.6962 124.379 57.6346C124.71 57.5654 125.006 57.4923 125.267 57.4154C125.537 57.3308 125.748 57.2385 125.902 57.1385V59.0192C125.902 59.6423 125.744 60.2 125.429 60.6923C125.113 61.1846 124.679 61.5769 124.125 61.8692ZM146.735 51.4962V47.6308H134.596V65.3538H139.373V51.4962H146.735ZM160.809 47.6308L154.428 58.8692V47.6308H149.732V65.3538H154.613L160.97 54.0808V65.3538H165.655V47.6308H160.809ZM169.595 47.6308V72H174.511V62.5154H174.661C174.884 63.0077 175.207 63.4962 175.63 63.9808C176.053 64.4577 176.595 64.8538 177.257 65.1692C177.926 65.4846 178.738 65.6423 179.691 65.6423C181.038 65.6423 182.253 65.2962 183.338 64.6038C184.43 63.9038 185.291 62.8769 185.922 61.5231C186.561 60.1615 186.88 58.4923 186.88 56.5154C186.88 54.4846 186.553 52.7962 185.899 51.45C185.245 50.0962 184.372 49.0846 183.28 48.4154C182.188 47.7385 180.995 47.4 179.703 47.4C178.711 47.4 177.88 47.5692 177.211 47.9077C176.549 48.2385 176.011 48.6538 175.595 49.1538C175.188 49.6462 174.876 50.1308 174.661 50.6077H174.441V47.6308H169.595ZM174.845 59.25C174.553 58.4654 174.407 57.5462 174.407 56.4923C174.407 55.4385 174.553 54.5231 174.845 53.7462C175.137 52.9692 175.557 52.3692 176.103 51.9462C176.657 51.5231 177.334 51.3115 178.134 51.3115C178.941 51.3115 179.622 51.5308 180.176 51.9692C180.73 52.4077 181.149 53.0154 181.434 53.7923C181.718 54.5692 181.861 55.4692 181.861 56.4923C181.861 57.5231 181.714 58.4346 181.422 59.2269C181.137 60.0115 180.718 60.6269 180.164 61.0731C179.611 61.5115 178.934 61.7308 178.134 61.7308C177.341 61.7308 176.668 61.5154 176.114 61.0846C175.561 60.6462 175.137 60.0346 174.845 59.25ZM190.866 71.85C191.413 71.95 191.997 72 192.62 72C193.836 72 194.874 71.8038 195.736 71.4115C196.597 71.0269 197.309 70.4769 197.87 69.7615C198.439 69.0538 198.889 68.2231 199.22 67.2692L206.109 47.6308H200.905L197.201 60.6462H197.016L193.347 47.6308H188.178L194.536 65.8615L194.247 66.6115C194.032 67.1654 193.751 67.5577 193.405 67.7885C193.066 68.0192 192.663 68.1269 192.193 68.1115C191.732 68.0962 191.213 68 190.636 67.8231L189.528 71.4923C189.882 71.6385 190.328 71.7577 190.866 71.85ZM219.701 47.6308L213.32 58.8692V47.6308H208.624V65.3538H213.505L219.863 54.0808V65.3538H224.547V47.6308H219.701ZM222.286 41.4462H218.859C218.859 41.9923 218.682 42.4731 218.328 42.8885C217.974 43.3038 217.389 43.5115 216.574 43.5115C215.736 43.5115 215.139 43.3 214.786 42.8769C214.439 42.4538 214.27 41.9769 214.278 41.4462H210.874C210.874 42.8462 211.386 43.9731 212.409 44.8269C213.432 45.6808 214.82 46.1077 216.574 46.1077C218.32 46.1077 219.705 45.6808 220.728 44.8269C221.759 43.9731 222.278 42.8462 222.286 41.4462Z" fill="#E3132C"/>
<rect x="312" y="24" width="48" height="48" rx="24" stroke="#111827" stroke-width="1.5"/>
<path d="M330 54L342 42M342 42V50M342 42H334" stroke="#111827" stroke-width="1.5" stroke-linejoin="round"/>
</svg>
