<svg width="100" height="16" viewBox="0 0 100 16" fill="none" xmlns="http://www.w3.org/2000/svg">
<g clip-path="url(#clip0_93_11067)">
<mask id="mask0_93_11067" style="mask-type:luminance" maskUnits="userSpaceOnUse" x="0" y="0" width="101" height="16">
<path d="M0 0H100V16H0V0Z" fill="white"/>
</mask>
<g mask="url(#mask0_93_11067)">
<path d="M12.8984 8.59297C16.6677 8.45725 18.9567 6.82944 18.9567 4.91329C18.9567 2.87076 16.4624 1.2155 12.2136 1.2155H11.6031L12.8541 0L10.9955 0.00723873L7.93131 1.2155H3.04981C1.33485 1.2155 0.381601 1.64379 0 2.47926H10.0339C12.8005 2.47926 14.66 2.90635 14.66 4.85085C14.66 6.94646 12.4243 7.35424 10.0339 7.35424H5.52797L9.51667 11.7261C12.8975 15.3545 16.0682 16 20.0045 16L12.8984 8.59297Z" fill="#E3132C"/>
</g>
<mask id="mask1_93_11067" style="mask-type:luminance" maskUnits="userSpaceOnUse" x="0" y="0" width="101" height="16">
<path d="M0 0H100V16H0V0Z" fill="white"/>
</mask>
<g mask="url(#mask1_93_11067)">
<path d="M31.5264 9.57479C30.771 9.57479 30.1598 9.48219 29.6947 9.3709V5.15645C30.1772 5.09733 30.8003 5.04636 31.5264 5.04636C33.2713 5.04636 34.2889 5.7642 34.2889 7.2593C34.2889 8.78245 33.1988 9.57418 31.5264 9.57418M31.7883 4.1376C30.3199 4.1376 28.895 4.31646 27.3677 4.37527V12.8416H29.6947V10.3723C30.3597 10.4356 31.0918 10.4826 31.7886 10.4826C34.9153 10.4826 36.8927 9.54523 36.8927 7.259C36.8927 4.97277 34.9147 4.1382 31.788 4.1382M44.8605 12.1539C43.0139 12.1539 41.7341 10.7767 41.7341 8.59273C41.7341 6.42413 43.0139 5.00232 44.8605 5.00232C46.7222 5.00232 47.9867 6.42383 47.9867 8.59243C47.9867 10.761 46.7219 12.1533 44.8605 12.1533M44.8605 4.09356C41.4142 4.09356 39.1314 5.92526 39.1314 8.59213C39.1314 11.259 41.4142 13.0614 44.8605 13.0614C48.3069 13.0614 50.5899 11.2587 50.5899 8.59153C50.5899 5.92526 48.3072 4.09326 44.8608 4.09326" fill="#E3132C"/>
</g>
<path d="M84.5139 4.3667L79.3519 11.0686V4.3667H77.0249V12.8806H79.3519L84.5139 6.16432V12.8806H86.8403V4.3667H85.8951" fill="#E3132C"/>
<mask id="mask2_93_11067" style="mask-type:luminance" maskUnits="userSpaceOnUse" x="0" y="0" width="101" height="16">
<path d="M0 0H100V16H0V0Z" fill="white"/>
</mask>
<g mask="url(#mask2_93_11067)">
<path d="M59.1257 5.03207C60.9284 5.03207 62.0049 6.01382 62.0049 6.01382L62.4844 4.75308C62.4844 4.75308 61.1322 4.09375 58.8348 4.09375C55.5195 4.09375 53.1931 5.92575 53.1931 8.59262C53.1931 11.2595 55.3738 13.0616 58.98 13.0616C61.1906 13.0616 62.4698 12.3583 62.4698 12.3583V11.0031C62.4698 11.0031 61.3938 12.0431 59.2272 12.0431C57.0166 12.0431 55.7955 10.7461 55.7955 8.59262C55.7955 6.45327 57.0456 5.03177 59.1251 5.03177M95.5068 9.00312C93.9944 9.00312 93.0786 8.27019 93.0786 6.95214C93.0786 5.66244 93.9944 5.04685 95.5068 5.04685C96.3277 5.04685 97.0921 5.11833 97.6737 5.19404V9.00342L95.5068 9.00312ZM95.2449 4.13809C92.4243 4.13809 90.4756 4.85593 90.4756 6.96632C90.4756 8.36098 91.267 9.18318 92.6575 9.58191L89.5598 13.0052H89.8501C91.9733 13.0052 93.0202 12.5507 94.3874 10.8804L95.1994 9.88111C95.215 9.88111 95.2293 9.88202 95.2449 9.88202H97.6734V12.8418H99.9998V4.36882C98.0373 4.31031 96.7141 4.13809 95.2452 4.13809M70.4528 5.03207C72.2555 5.03207 73.3315 6.01382 73.3315 6.01382L73.8115 4.75308C73.8115 4.75308 72.4587 4.09375 70.1616 4.09375C66.8463 4.09375 64.5199 5.92575 64.5199 8.59262C64.5199 11.2595 66.7009 13.0616 70.3071 13.0616C72.5171 13.0616 73.7969 12.3583 73.7969 12.3583V11.0031C73.7969 11.0031 72.7203 12.0431 70.554 12.0431C68.3434 12.0431 67.122 10.7461 67.122 8.59262C67.1226 6.45327 68.373 5.03177 70.4525 5.03177" fill="#E3132C"/>
</g>
</g>
<defs>
<clipPath id="clip0_93_11067">
<rect width="100" height="16" fill="white"/>
</clipPath>
</defs>
</svg>
