<svg width="25" height="24" viewBox="0 0 25 24" fill="none" xmlns="http://www.w3.org/2000/svg">
<circle cx="12.5" cy="8" r="4" stroke="#7C828F" stroke-width="1.5"/>
<path d="M17.5 11C19.1569 11 20.5 9.65685 20.5 8C20.5 6.34315 19.1569 5 17.5 5" stroke="#7C828F" stroke-width="1.5"/>
<path d="M22.5 16C22.5 13.2386 20.2614 11 17.5 11" stroke="#7C828F" stroke-width="1.5"/>
<path d="M7.5 11C5.84315 11 4.5 9.65685 4.5 8C4.5 6.34315 5.84315 5 7.5 5" stroke="#7C828F" stroke-width="1.5"/>
<path d="M2.5 16C2.5 13.2386 4.73858 11 7.5 11" stroke="#7C828F" stroke-width="1.5"/>
<path d="M20.5 20C20.5 15.5817 16.9183 12 12.5 12C8.08172 12 4.5 15.5817 4.5 20" stroke="#7C828F" stroke-width="1.5"/>
</svg>
